<?xml version="1.0" encoding="UTF-8"?>
<!DOCTYPE svg PUBLIC "-//W3C//DTD SVG 1.1//EN" "http://www.w3.org/Graphics/SVG/1.1/DTD/svg11.dtd">
<!-- Creator: CorelDRAW X6 -->
<svg xmlns="http://www.w3.org/2000/svg" xml:space="preserve" width="11.8472in" height="8.13889in" version="1.1" style="shape-rendering:geometricPrecision; text-rendering:geometricPrecision; image-rendering:optimizeQuality; fill-rule:evenodd; clip-rule:evenodd"
viewBox="0 0 11847 8139"
 xmlns:xlink="http://www.w3.org/1999/xlink">
 <defs>
  <style type="text/css">
   <![CDATA[
    .fil1 {fill:white;fill-rule:nonzero}
    .fil0 {fill:url(#id0)}
   ]]>
  </style>
  <linearGradient id="id0" gradientUnits="userSpaceOnUse" x1="5923.61" y1="-6.51181" x2="5923.61" y2="8138.89">
   <stop offset="0" style="stop-color:#AB0000"/>
   <stop offset="1" style="stop-color:darkred"/>
  </linearGradient>
 </defs>
 <g id="Layer_x0020_1">
  <metadata id="CorelCorpID_0Corel-Layer"/>
  <polygon class="fil0" points="0,8139 11847,8139 11847,-7 0,-7 "/>
  <path class="fil1" d="M3615 3288c0,-96 -14,-183 -43,-263 -28,-79 -69,-147 -122,-203 -53,-56 -118,-100 -195,-131 -77,-32 -164,-47 -259,-47l-302 0 0 1295 302 0c98,0 186,-16 263,-49 77,-33 143,-78 195,-137 53,-58 93,-127 120,-207 27,-79 41,-166 41,-259zm-1676 1246l0 -2485 1057 0c227,0 427,33 600,98 173,65 317,154 433,266 116,112 204,243 263,394 59,151 89,311 89,481 0,189 -33,360 -99,513 -66,153 -159,284 -281,392 -121,109 -267,193 -437,252 -170,60 -360,89 -569,89l-1057 0z"/>
  <path class="fil1" d="M6391 3288c0,-96 -14,-183 -43,-263 -28,-79 -69,-147 -122,-203 -53,-56 -118,-100 -195,-131 -77,-32 -164,-47 -259,-47l-302 0 0 1295 302 0c98,0 186,-16 263,-49 77,-33 143,-78 195,-137 53,-58 93,-127 120,-207 27,-79 41,-166 41,-259zm-1676 1246l0 -2485 1057 0c227,0 427,33 600,98 173,65 317,154 433,266 116,112 204,243 263,394 59,151 89,311 89,481 0,189 -33,360 -99,513 -66,153 -159,284 -281,392 -121,109 -267,193 -437,252 -170,60 -360,89 -569,89l-1057 0z"/>
  <polygon class="fil1" points="8246,3313 8246,4535 7492,4535 7492,2049 8080,2049 9183,3313 9183,2049 9938,2049 9938,4535 9338,4535 "/>
  <path class="fil1" d="M2746 5335c-9,-7 -24,-16 -45,-28 -21,-11 -45,-22 -74,-32 -29,-10 -60,-19 -95,-26 -35,-7 -73,-11 -112,-11 -57,0 -101,8 -132,24 -31,16 -47,40 -47,71 0,19 6,35 19,48 13,13 30,24 54,33 23,10 51,18 84,26 33,8 71,16 113,24 58,12 111,26 159,41 48,16 88,35 121,58 33,23 59,50 77,83 18,32 27,72 27,119 0,56 -12,104 -37,142 -25,38 -57,70 -98,94 -41,25 -88,42 -142,53 -54,11 -110,16 -170,16 -90,0 -179,-11 -267,-34 -88,-23 -167,-54 -237,-93l109 -189c13,12 33,25 59,40 26,14 57,28 92,40 36,12 75,22 117,30 42,8 86,12 131,12 123,0 185,-30 185,-90 0,-18 -6,-33 -18,-45 -12,-12 -29,-23 -52,-33 -23,-10 -50,-19 -83,-28 -33,-8 -72,-17 -115,-27 -66,-16 -123,-32 -170,-49 -47,-17 -86,-36 -116,-58 -30,-22 -53,-48 -68,-77 -15,-29 -22,-64 -22,-103 0,-51 12,-97 35,-137 23,-40 55,-73 94,-100 40,-26 86,-46 139,-60 53,-14 109,-21 169,-21 85,0 163,11 235,34 72,23 134,49 186,77l-105 178z"/>
  <polygon class="fil1" points="4019,5243 3628,5243 3628,6057 3388,6057 3388,5243 2994,5243 2994,5053 4019,5053 "/>
  <path class="fil1" d="M4363 5556c0,41 8,80 23,118 15,38 38,71 68,101 30,29 66,53 108,71 42,18 91,27 145,27 54,0 103,-9 145,-28 42,-19 78,-43 106,-73 28,-30 50,-64 65,-102 15,-38 22,-76 22,-116 0,-41 -8,-80 -24,-118 -16,-38 -38,-71 -68,-100 -29,-29 -65,-52 -106,-69 -42,-17 -89,-26 -142,-26 -54,0 -103,9 -145,28 -42,19 -78,43 -107,72 -29,29 -51,63 -67,101 -15,38 -23,76 -23,114zm340 508c-87,0 -167,-14 -238,-43 -72,-29 -133,-67 -184,-115 -51,-48 -91,-102 -119,-164 -29,-61 -43,-124 -43,-189 0,-66 15,-129 45,-190 30,-61 71,-115 123,-162 52,-47 114,-84 186,-112 72,-28 150,-42 234,-42 87,0 167,15 239,44 72,29 133,68 184,116 50,48 89,103 117,164 28,62 42,124 42,188 0,66 -15,129 -44,190 -29,61 -70,115 -121,162 -52,47 -114,84 -186,111 -72,28 -151,41 -235,41z"/>
  <path class="fil1" d="M5726 5538l300 0c44,0 80,-14 110,-42 30,-28 45,-63 45,-105 0,-22 -5,-41 -14,-59 -9,-18 -22,-34 -37,-47 -15,-13 -33,-23 -53,-31 -20,-7 -40,-11 -62,-11l-290 0 0 295zm-240 519l0 -1004 546 0c57,0 109,10 157,30 48,20 89,46 124,77 35,32 62,68 81,109 19,41 29,81 29,122 0,64 -20,122 -60,174 -40,53 -93,92 -161,117l290 376 -274 0 -258 -329 -234 0 0 329 -240 0z"/>
  <path class="fil1" d="M7125 5317l-163 316 320 0 -157 -316zm-584 740l485 -1004 197 0 483 1004 -254 0 -111 -235 -431 0 -111 235 -256 0z"/>
  <path class="fil1" d="M8663 5955c-93,73 -200,110 -322,110 -78,0 -151,-14 -220,-42 -68,-28 -128,-66 -179,-114 -51,-48 -91,-103 -120,-164 -29,-62 -44,-127 -44,-195 0,-69 15,-135 44,-196 29,-61 70,-114 121,-160 52,-46 113,-81 184,-108 71,-26 147,-40 230,-40 111,0 207,20 286,59 79,40 139,93 179,160l-183 122c-28,-47 -68,-83 -119,-109 -52,-26 -109,-39 -171,-39 -49,0 -94,8 -134,25 -40,17 -75,40 -103,68 -29,29 -51,62 -67,101 -16,38 -24,79 -24,122 0,46 9,87 26,126 17,38 41,71 72,99 30,28 67,49 108,66 42,16 87,24 136,24 110,0 210,-43 300,-128l0 -49 -246 0 0 -158 445 0 0 521 -199 0 0 -102z"/>
  <polygon class="fil1" points="9939,5867 9939,6057 9082,6057 9082,5053 9923,5053 9923,5243 9323,5243 9323,5457 9841,5457 9841,5635 9323,5635 9323,5867 "/>
  <path class="fil1" d="M10330 2339l40 0c44,0 83,-13 83,-52 0,-31 -19,-52 -77,-52 -23,0 -37,2 -46,4l0 100zm0 181l-60 0 0 -321c33,-6 67,-10 112,-10 54,0 81,10 102,25 19,13 33,38 33,67 0,40 -29,65 -64,77l0 4c29,12 44,37 54,77 10,50 15,69 23,81l-62 0c-10,-12 -17,-40 -25,-85 -8,-35 -29,-50 -75,-50l-39 0 0 135zm54 -421c-139,0 -244,114 -244,252 0,142 106,254 248,254 139,2 241,-112 241,-252 0,-140 -102,-254 -242,-254l-2 0zm4 -54c173,0 310,135 310,306 0,175 -137,310 -312,310 -175,0 -314,-135 -314,-310 0,-171 139,-306 314,-306l2 0z"/>
 </g>
</svg>
